<svg id="svg" version="1.1" xmlns="http://www.w3.org/2000/svg" xmlns:xlink="http://www.w3.org/1999/xlink" width="400" height="400" viewBox="0, 0, 400,400"><g id="svgg"><path id="path0" d="M23.600 105.999 L 23.600 153.200 81.767 153.200 C 113.759 153.200,140.219 153.091,140.567 152.957 C 141.117 152.746,141.200 151.577,141.200 143.992 C 141.200 129.960,143.083 123.807,149.530 116.773 C 157.271 108.327,163.565 106.019,178.892 106.007 L 187.985 106.000 188.203 105.100 C 188.323 104.605,188.371 94.030,188.311 81.600 L 188.200 59.000 105.900 58.899 L 23.600 58.798 23.600 105.999 " stroke="none" fill="#a3ebfb" fill-rule="evenodd"></path><path id="path1" d="M258.965 145.200 C 258.965 149.050,259.025 150.625,259.098 148.700 C 259.171 146.775,259.171 143.625,259.098 141.700 C 259.025 139.775,258.965 141.350,258.965 145.200 M7.600 199.984 C 7.600 200.213,7.174 200.400,6.654 200.400 C 5.643 200.400,1.200 204.274,1.200 205.155 C 1.200 205.426,1.041 205.549,0.846 205.428 C 0.122 204.981,0.045 208.095,0.018 238.900 L -0.009 270.400 11.546 270.400 C 21.330 270.400,23.178 270.492,23.600 271.000 C 24.315 271.862,140.039 271.918,140.753 271.056 C 141.082 270.660,141.177 260.947,141.102 235.156 L 141.000 199.800 74.300 199.684 C 28.320 199.604,7.600 199.697,7.600 199.984 M259.377 199.956 C 259.103 200.230,259.168 270.251,259.443 270.967 C 259.735 271.730,376.400 271.962,376.400 271.200 C 376.400 270.942,380.603 270.800,388.209 270.800 L 400.018 270.800 399.909 238.234 C 399.801 205.874,399.795 205.662,398.972 204.934 C 398.517 204.530,398.028 203.885,397.885 203.500 C 397.742 203.115,397.422 202.800,397.173 202.800 C 396.924 202.800,396.217 202.260,395.600 201.600 C 394.911 200.862,394.079 200.400,393.440 200.400 C 392.868 200.400,392.400 200.213,392.400 199.984 C 392.400 199.577,259.785 199.549,259.377 199.956 " stroke="none" fill="#cb355f" fill-rule="evenodd"></path><path id="path2" d="M211.797 59.700 C 211.677 60.195,211.629 70.680,211.689 83.000 L 211.800 105.400 221.800 105.657 C 238.869 106.095,248.084 110.646,254.489 121.800 C 258.065 128.028,258.803 131.439,259.137 143.290 L 259.400 152.600 317.900 152.701 L 376.400 152.803 376.400 105.801 L 376.400 58.800 294.208 58.800 L 212.015 58.800 211.797 59.700 " stroke="none" fill="#ebbb44" fill-rule="evenodd"></path><path id="path3" d="M200.000 70.213 C 200.000 98.178,199.895 105.664,199.500 105.809 C 199.225 105.910,192.340 106.167,184.200 106.380 C 169.103 106.776,165.692 107.000,165.020 107.639 C 164.811 107.837,164.226 108.000,163.720 108.000 C 163.214 108.000,162.800 108.180,162.800 108.400 C 162.800 108.620,162.528 108.800,162.195 108.800 C 161.862 108.800,161.232 108.980,160.795 109.200 C 160.358 109.420,159.640 109.780,159.200 110.000 C 157.824 110.688,156.608 111.391,156.400 111.619 C 156.290 111.740,155.570 112.269,154.800 112.796 C 151.270 115.210,146.908 120.556,144.842 125.000 C 144.331 126.100,143.752 127.313,143.556 127.695 C 143.360 128.077,143.200 128.842,143.200 129.395 C 143.200 129.948,143.020 130.400,142.800 130.400 C 142.580 130.400,142.400 131.285,142.400 132.367 C 142.400 133.448,142.236 134.393,142.035 134.467 C 141.825 134.543,141.544 143.619,141.377 155.700 C 141.217 167.305,140.931 176.800,140.743 176.800 C 140.069 176.800,140.323 199.485,141.000 199.745 C 141.910 200.094,141.910 270.445,141.000 271.200 C 140.301 271.780,140.102 283.942,140.781 284.621 C 140.990 284.830,141.207 285.676,141.263 286.501 C 141.318 287.325,141.507 288.000,141.682 288.000 C 141.857 288.000,142.000 288.281,142.000 288.624 C 142.000 288.967,142.160 289.149,142.355 289.028 C 142.550 288.907,142.685 289.122,142.655 289.504 C 142.625 289.887,142.825 290.155,143.100 290.100 C 143.375 290.045,143.600 290.166,143.600 290.369 C 143.600 290.572,144.140 291.278,144.800 291.938 C 145.460 292.598,146.000 292.945,146.000 292.708 C 146.000 292.471,146.336 292.665,146.747 293.139 C 147.158 293.613,147.967 294.000,148.547 294.000 C 149.126 294.000,149.603 294.225,149.606 294.500 C 149.610 294.833,149.742 294.800,150.000 294.400 C 150.258 294.000,150.390 293.967,150.394 294.300 C 150.402 294.951,187.602 295.038,188.252 294.388 C 188.506 294.134,190.795 294.019,194.232 294.088 L 199.800 294.200 199.800 304.000 L 199.800 313.800 194.092 313.911 C 189.187 314.006,188.349 313.933,188.140 313.389 C 187.871 312.687,165.049 312.528,164.187 313.222 C 163.959 313.405,162.924 313.598,161.887 313.652 C 160.849 313.706,160.000 313.896,160.000 314.075 C 160.000 314.254,159.645 314.400,159.212 314.400 C 158.779 314.400,157.783 314.760,157.000 315.200 C 156.217 315.640,155.311 316.000,154.988 316.000 C 154.665 316.000,154.400 316.138,154.400 316.306 C 154.400 316.474,153.715 316.908,152.877 317.271 C 151.275 317.965,145.481 323.348,145.893 323.760 C 146.025 323.892,145.893 324.000,145.600 324.000 C 145.307 324.000,145.183 324.117,145.326 324.259 C 145.469 324.402,145.274 324.807,144.893 325.159 C 144.512 325.512,144.144 326.057,144.076 326.372 C 144.008 326.686,143.627 327.406,143.231 327.972 C 142.834 328.537,142.559 329.315,142.619 329.700 C 142.680 330.085,142.594 330.400,142.428 330.400 C 141.979 330.400,141.200 333.284,141.200 334.946 C 141.200 335.839,141.007 336.402,140.700 336.406 C 140.367 336.410,140.400 336.542,140.800 336.800 C 141.200 337.058,141.233 337.190,140.900 337.194 C 140.515 337.199,140.400 339.315,140.400 346.424 C 140.400 352.471,140.538 355.562,140.800 355.400 C 141.034 355.255,141.200 355.675,141.200 356.415 C 141.200 357.109,141.572 358.199,142.027 358.838 C 142.482 359.477,142.732 360.000,142.583 360.000 C 142.434 360.000,142.736 360.354,143.256 360.787 C 143.775 361.219,144.023 361.579,143.807 361.587 C 143.274 361.605,146.242 363.600,146.802 363.600 C 147.047 363.600,147.136 363.780,147.000 364.000 C 146.860 364.226,147.188 364.400,147.753 364.400 C 148.303 364.400,148.869 364.589,149.012 364.819 C 149.169 365.073,150.828 365.211,153.229 365.170 C 155.405 365.132,157.089 364.944,156.970 364.751 C 156.850 364.558,157.023 364.400,157.354 364.400 C 158.718 364.400,163.200 361.016,163.200 359.986 C 163.200 359.805,163.425 359.419,163.700 359.129 C 164.910 357.849,165.200 355.673,165.200 347.853 C 165.200 340.010,165.206 339.958,166.182 338.982 L 167.164 338.000 177.582 338.000 L 188.000 338.000 188.000 347.576 C 188.000 353.529,188.151 357.246,188.400 357.400 C 188.620 357.536,188.800 357.964,188.800 358.351 C 188.800 359.160,192.788 363.600,193.515 363.600 C 193.782 363.600,194.000 363.780,194.000 364.000 C 194.000 364.220,194.360 364.400,194.800 364.400 C 195.240 364.400,195.603 364.625,195.606 364.900 C 195.610 365.233,195.742 365.200,196.000 364.800 C 196.258 364.400,196.390 364.367,196.394 364.700 C 196.398 365.066,197.475 365.200,200.424 365.200 C 203.004 365.200,204.359 365.057,204.200 364.800 C 204.064 364.580,204.313 364.400,204.753 364.400 C 205.193 364.400,205.664 364.220,205.800 364.000 C 205.936 363.780,206.397 363.600,206.824 363.600 C 207.251 363.600,207.600 363.425,207.600 363.211 C 207.600 362.996,208.410 362.011,209.400 361.021 C 210.390 360.031,211.200 358.856,211.200 358.411 C 211.200 357.965,211.380 357.600,211.600 357.600 C 211.856 357.600,212.000 354.067,212.000 347.800 L 212.000 338.000 222.528 338.000 L 233.056 338.000 233.915 338.988 C 234.733 339.929,234.776 340.383,234.816 348.588 C 234.840 353.587,235.013 357.200,235.229 357.200 C 235.433 357.200,235.600 357.560,235.600 358.000 C 235.600 358.440,235.780 358.800,236.000 358.800 C 236.220 358.800,236.400 359.075,236.400 359.411 C 236.400 360.204,239.796 363.600,240.589 363.600 C 240.925 363.600,241.200 363.780,241.200 364.000 C 241.200 364.220,241.560 364.400,242.000 364.400 C 242.440 364.400,242.800 364.580,242.800 364.800 C 242.800 365.041,244.467 365.200,247.000 365.200 C 249.533 365.200,251.200 365.041,251.200 364.800 C 251.200 364.580,251.616 364.400,252.125 364.400 C 252.633 364.400,253.436 364.040,253.908 363.600 C 254.380 363.160,254.984 362.800,255.250 362.800 C 255.516 362.800,255.624 362.691,255.491 362.557 C 255.174 362.240,256.109 361.229,256.500 361.466 C 256.665 361.565,256.800 361.367,256.800 361.024 C 256.800 360.681,256.951 360.400,257.136 360.400 C 257.592 360.400,258.371 358.636,259.043 356.080 C 259.717 353.517,259.854 336.400,259.200 336.400 C 258.980 336.400,258.800 335.618,258.800 334.663 C 258.800 331.868,256.689 326.673,254.406 323.850 C 252.637 321.661,248.356 317.600,247.819 317.600 C 247.479 317.600,247.200 317.420,247.200 317.200 C 247.200 316.980,246.840 316.800,246.400 316.800 C 245.960 316.800,245.600 316.620,245.600 316.400 C 245.600 316.180,245.240 316.000,244.800 316.000 C 244.360 316.000,244.000 315.820,244.000 315.600 C 244.000 315.380,243.640 315.200,243.200 315.200 C 242.760 315.200,242.400 315.020,242.400 314.800 C 242.400 314.580,241.961 314.400,241.424 314.400 C 240.887 314.400,240.336 314.220,240.200 314.000 C 240.064 313.780,239.093 313.600,238.043 313.600 C 236.993 313.600,235.998 313.465,235.833 313.300 C 235.417 312.883,236.023 312.905,223.400 312.850 L 212.000 312.800 212.000 303.800 L 212.000 294.800 231.200 294.800 C 243.733 294.800,250.400 294.661,250.400 294.400 C 250.400 294.180,250.940 294.000,251.600 294.000 C 252.260 294.000,252.800 293.820,252.800 293.600 C 252.800 293.380,253.070 293.200,253.399 293.200 C 253.982 293.200,257.346 290.294,257.454 289.698 C 257.659 288.564,258.147 287.644,258.445 287.828 C 258.640 287.949,258.800 287.317,258.800 286.424 C 258.800 285.531,258.980 284.800,259.200 284.800 C 259.451 284.800,259.600 282.275,259.600 278.024 C 259.600 273.937,259.441 271.149,259.200 271.000 C 258.938 270.838,258.800 258.537,258.800 235.400 C 258.800 212.263,258.938 199.962,259.200 199.800 C 259.451 199.645,259.600 195.329,259.600 188.176 L 259.600 176.800 270.594 176.800 L 281.588 176.800 281.694 188.300 L 281.800 199.800 294.200 199.800 L 306.600 199.800 306.706 188.300 L 306.812 176.800 349.206 176.800 C 377.202 176.800,391.600 176.664,391.600 176.400 C 391.600 176.180,392.058 176.000,392.617 176.000 C 393.176 176.000,394.006 175.653,394.461 175.229 C 394.916 174.806,395.538 174.555,395.844 174.672 C 396.158 174.793,396.400 174.638,396.400 174.318 C 396.400 174.006,396.940 173.351,397.600 172.863 C 398.383 172.284,398.800 171.625,398.800 170.964 C 398.800 170.408,398.971 170.058,399.180 170.188 C 399.976 170.679,400.027 166.128,399.915 105.200 L 399.800 42.600 398.865 40.847 C 397.843 38.931,396.291 37.200,395.595 37.200 C 395.352 37.200,395.264 37.020,395.400 36.800 C 395.541 36.572,395.196 36.400,394.600 36.400 C 394.004 36.400,393.659 36.228,393.800 36.000 C 393.936 35.780,393.677 35.578,393.224 35.550 C 391.901 35.470,391.684 35.417,391.367 35.100 C 391.202 34.935,348.077 34.800,295.533 34.800 L 200.000 34.800 200.000 70.213 M376.702 105.900 L 376.600 153.400 318.600 153.510 C 286.700 153.570,260.223 153.528,259.763 153.418 C 258.949 153.222,258.918 152.928,258.662 143.108 C 258.399 133.055,258.236 131.781,256.611 127.064 C 253.620 118.386,245.074 110.239,236.200 107.607 C 235.320 107.346,234.060 106.954,233.400 106.735 C 232.740 106.516,227.610 106.237,222.000 106.114 C 215.181 105.965,211.703 105.743,211.506 105.445 C 211.156 104.914,211.104 60.600,211.452 59.300 L 211.693 58.400 294.248 58.400 L 376.803 58.400 376.702 105.900 M94.100 176.665 C 93.716 176.820,93.600 179.514,93.600 188.233 L 93.600 199.600 106.000 199.600 L 118.400 199.600 118.400 188.243 C 118.400 178.256,118.324 176.856,117.767 176.643 C 117.013 176.353,94.821 176.374,94.100 176.665 M376.239 271.442 C 375.449 273.501,376.019 356.689,376.835 358.378 C 377.776 360.325,380.883 363.600,381.789 363.600 C 382.125 363.600,382.400 363.780,382.400 364.000 C 382.400 364.220,382.760 364.400,383.200 364.400 C 383.640 364.400,384.000 364.580,384.000 364.800 C 384.000 365.041,385.667 365.200,388.200 365.200 C 390.733 365.200,392.400 365.041,392.400 364.800 C 392.400 364.580,392.760 364.400,393.200 364.400 C 393.640 364.400,394.000 364.220,394.000 364.000 C 394.000 363.780,394.286 363.600,394.635 363.600 C 395.632 363.600,399.468 359.362,399.750 357.948 C 399.888 357.262,400.000 337.373,400.000 313.750 L 400.000 270.800 388.243 270.800 C 377.821 270.800,376.458 270.873,376.239 271.442 M0.000 313.944 C 0.000 337.460,0.115 357.276,0.256 357.980 C 0.534 359.368,4.427 363.600,5.426 363.600 C 5.742 363.600,6.000 363.780,6.000 364.000 C 6.000 364.220,6.349 364.400,6.776 364.400 C 7.203 364.400,7.664 364.580,7.800 364.800 C 7.938 365.023,9.804 365.200,12.024 365.200 C 14.408 365.200,16.000 365.040,16.000 364.800 C 16.000 364.580,16.360 364.400,16.800 364.400 C 17.240 364.400,17.600 364.220,17.600 364.000 C 17.600 363.780,17.849 363.600,18.154 363.600 C 18.851 363.600,22.985 359.462,22.462 359.287 C 22.250 359.217,22.504 358.697,23.026 358.134 L 23.977 357.108 23.888 314.254 L 23.800 271.400 11.900 271.294 L 0.000 271.188 0.000 313.944 " stroke="none" fill="#444b53" fill-rule="evenodd"></path><path id="path4" d="M7.600 35.200 C 7.600 35.420,7.240 35.600,6.800 35.600 C 6.360 35.600,6.000 35.780,6.000 36.000 C 6.000 36.220,5.725 36.400,5.389 36.400 C 4.632 36.400,1.609 39.406,0.800 40.965 C -0.023 42.551,-0.122 170.426,0.700 170.700 C 0.975 170.792,1.200 171.122,1.200 171.433 C 1.200 171.745,1.380 172.000,1.600 172.000 C 1.820 172.000,2.000 172.270,2.000 172.600 C 2.000 172.930,2.172 173.200,2.382 173.200 C 2.592 173.200,3.214 173.650,3.764 174.200 C 4.314 174.750,5.042 175.200,5.382 175.200 C 5.722 175.200,6.000 175.380,6.000 175.600 C 6.000 175.820,6.360 176.000,6.800 176.000 C 7.240 176.000,7.600 176.180,7.600 176.400 C 7.600 176.664,22.133 176.800,50.400 176.800 L 93.200 176.800 93.294 188.300 L 93.387 199.800 93.500 188.420 C 93.584 179.951,93.739 176.952,94.106 176.699 C 94.378 176.511,105.059 176.480,117.842 176.628 L 141.084 176.898 141.376 155.749 C 141.544 143.639,141.825 134.543,142.035 134.467 C 142.236 134.393,142.400 133.448,142.400 132.367 C 142.400 131.285,142.580 130.400,142.800 130.400 C 143.020 130.400,143.200 129.948,143.200 129.395 C 143.200 128.842,143.360 128.077,143.556 127.695 C 143.752 127.313,144.331 126.100,144.842 125.000 C 146.908 120.556,151.270 115.210,154.800 112.796 C 155.570 112.269,156.290 111.740,156.400 111.619 C 156.608 111.391,157.824 110.688,159.200 110.000 C 159.640 109.780,160.358 109.420,160.795 109.200 C 161.232 108.980,161.862 108.800,162.195 108.800 C 162.528 108.800,162.800 108.620,162.800 108.400 C 162.800 108.180,163.214 108.000,163.720 108.000 C 164.226 108.000,164.811 107.837,165.020 107.639 C 165.692 107.000,169.103 106.776,184.200 106.380 C 192.340 106.167,199.225 105.910,199.500 105.809 C 199.895 105.664,200.000 98.178,200.000 70.213 L 200.000 34.800 103.800 34.800 C 39.933 34.800,7.600 34.934,7.600 35.200 M211.452 59.300 C 211.104 60.600,211.156 104.914,211.506 105.449 C 211.705 105.753,215.002 105.956,221.695 106.078 C 227.138 106.177,231.493 106.160,231.375 106.041 C 231.256 105.923,226.803 105.730,221.479 105.613 L 211.800 105.400 211.689 83.000 C 211.629 70.680,211.677 60.195,211.797 59.700 L 212.015 58.800 294.208 58.800 L 376.400 58.800 376.400 105.800 L 376.400 152.800 317.833 152.800 C 271.354 152.800,259.225 152.697,259.065 152.300 C 258.943 151.998,258.851 152.075,258.832 152.492 C 258.780 153.629,258.424 153.623,318.600 153.510 L 376.600 153.400 376.702 105.900 L 376.803 58.400 294.248 58.400 L 211.693 58.400 211.452 59.300 M188.311 81.600 C 188.371 94.030,188.323 104.605,188.203 105.100 L 187.985 106.000 178.892 106.007 C 163.565 106.019,157.271 108.327,149.530 116.773 C 143.083 123.807,141.200 129.960,141.200 143.992 C 141.200 151.577,141.117 152.746,140.567 152.957 C 140.219 153.091,113.759 153.200,81.767 153.200 L 23.600 153.200 23.600 105.999 L 23.600 58.798 105.900 58.899 L 188.200 59.000 188.311 81.600 M233.200 106.794 C 233.530 107.011,234.235 107.191,234.767 107.194 C 236.051 107.202,235.725 106.975,234.000 106.658 C 233.015 106.477,232.778 106.518,233.200 106.794 M237.558 108.037 C 238.525 108.466,239.388 108.745,239.475 108.658 C 239.648 108.486,236.565 107.182,236.092 107.228 C 235.931 107.244,236.591 107.608,237.558 108.037 M240.000 108.997 C 240.000 109.064,240.765 109.504,241.700 109.975 C 243.267 110.763,243.322 110.768,242.400 110.036 C 241.509 109.329,240.000 108.676,240.000 108.997 M251.827 118.600 C 253.200 120.400,253.468 120.403,252.304 118.605 C 251.807 117.838,251.256 117.208,251.080 117.205 C 250.903 117.202,251.240 117.830,251.827 118.600 M256.843 127.627 C 257.079 128.382,257.450 129.765,257.668 130.700 C 257.886 131.635,258.155 132.400,258.264 132.400 C 258.687 132.400,257.346 127.371,256.725 126.627 C 256.554 126.422,256.607 126.872,256.843 127.627 M258.531 135.800 C 258.533 137.340,258.605 137.921,258.692 137.091 C 258.779 136.261,258.777 135.001,258.689 134.291 C 258.600 133.581,258.529 134.260,258.531 135.800 M99.900 199.899 C 103.255 199.966,108.745 199.966,112.100 199.899 C 115.455 199.832,112.710 199.778,106.000 199.778 C 99.290 199.778,96.545 199.832,99.900 199.899 M141.104 235.092 C 141.187 263.105,141.103 270.643,140.704 271.154 C 140.256 271.728,140.278 271.739,140.900 271.251 C 141.641 270.670,142.035 200.316,141.300 199.862 C 141.135 199.760,141.047 215.613,141.104 235.092 M259.067 199.867 C 258.696 200.237,258.729 270.709,259.100 270.938 C 259.265 271.040,259.400 255.031,259.400 235.362 C 259.400 215.693,259.385 199.600,259.367 199.600 C 259.348 199.600,259.213 199.720,259.067 199.867 M0.000 270.789 C 0.000 271.029,4.568 271.220,11.966 271.289 C 21.504 271.377,23.848 271.299,23.517 270.900 C 22.997 270.273,-0.000 270.164,0.000 270.789 M188.184 294.497 C 188.074 294.783,188.033 299.243,188.092 304.408 L 188.200 313.800 194.000 313.800 L 199.800 313.800 199.800 304.000 L 199.800 294.200 194.092 294.089 C 189.700 294.004,188.337 294.098,188.184 294.497 " stroke="none" fill="#545b64" fill-rule="evenodd"></path></g></svg>