<svg id="svg" version="1.1" xmlns="http://www.w3.org/2000/svg" xmlns:xlink="http://www.w3.org/1999/xlink" width="400" height="400" viewBox="0, 0, 400,400"><g id="svgg"><path id="path0" d="M194.400 5.600 C 194.400 5.820,193.860 6.000,193.200 6.000 C 192.540 6.000,192.000 6.180,192.000 6.400 C 192.000 6.620,191.640 6.800,191.200 6.800 C 190.760 6.800,190.400 6.980,190.400 7.200 C 190.400 7.420,190.040 7.600,189.600 7.600 C 189.160 7.600,188.800 7.780,188.800 8.000 C 188.800 8.220,188.485 8.403,188.100 8.406 C 187.715 8.410,186.590 9.127,185.600 10.000 C 184.610 10.873,183.665 11.590,183.500 11.594 C 183.335 11.597,183.200 11.798,183.200 12.040 C 183.200 12.281,182.660 12.983,182.000 13.600 C 181.340 14.217,180.800 15.009,180.800 15.360 C 180.800 15.712,180.620 16.000,180.400 16.000 C 180.180 16.000,180.000 16.360,180.000 16.800 C 180.000 17.240,179.820 17.600,179.600 17.600 C 179.380 17.600,179.200 17.960,179.200 18.400 C 179.200 18.840,179.020 19.200,178.800 19.200 C 178.580 19.200,178.400 19.740,178.400 20.400 C 178.400 21.060,178.223 21.600,178.008 21.600 C 177.507 21.600,177.927 60.387,178.450 62.479 C 179.512 66.726,185.653 68.295,188.763 65.114 C 190.652 63.181,190.799 61.567,190.809 42.680 C 190.818 23.994,190.827 23.910,193.078 21.391 C 197.657 16.265,205.376 17.478,208.414 23.800 C 209.135 25.301,209.183 26.466,209.191 42.680 C 209.197 53.245,209.364 60.725,209.622 61.926 C 210.921 67.988,219.258 68.543,221.336 62.707 C 222.070 60.648,222.693 21.600,221.992 21.600 C 221.777 21.600,221.600 21.060,221.600 20.400 C 221.600 19.740,221.420 19.200,221.200 19.200 C 220.980 19.200,220.800 18.966,220.800 18.680 C 220.800 17.944,219.859 16.007,219.500 16.003 C 219.335 16.001,219.200 15.730,219.200 15.400 C 219.200 14.912,217.893 13.302,215.704 11.093 C 214.372 9.749,212.479 8.412,211.900 8.406 C 211.515 8.403,211.200 8.220,211.200 8.000 C 211.200 7.780,210.840 7.600,210.400 7.600 C 209.960 7.600,209.600 7.420,209.600 7.200 C 209.600 6.980,209.240 6.800,208.800 6.800 C 208.360 6.800,208.000 6.620,208.000 6.400 C 208.000 6.180,207.460 6.000,206.800 6.000 C 206.140 6.000,205.600 5.820,205.600 5.600 C 205.600 5.352,203.467 5.200,200.000 5.200 C 196.533 5.200,194.400 5.352,194.400 5.600 M156.800 38.400 C 156.800 38.620,156.512 38.800,156.160 38.800 C 155.809 38.800,155.017 39.340,154.400 40.000 C 153.783 40.660,153.126 41.202,152.940 41.205 C 152.099 41.217,146.860 46.105,144.952 48.658 C 144.318 49.506,143.470 50.559,143.066 51.000 C 142.662 51.440,142.051 52.340,141.707 53.000 C 141.363 53.660,140.748 54.491,140.341 54.847 C 139.933 55.203,139.600 55.748,139.600 56.059 C 139.600 56.369,139.240 56.883,138.800 57.200 C 138.360 57.517,138.000 58.097,138.000 58.488 C 138.000 58.880,137.820 59.200,137.600 59.200 C 137.380 59.200,137.200 59.470,137.200 59.800 C 137.200 60.130,137.064 60.400,136.898 60.400 C 136.731 60.400,136.341 60.985,136.030 61.700 C 135.719 62.415,135.360 63.090,135.232 63.200 C 134.699 63.659,134.000 65.246,134.000 65.995 C 134.000 66.438,133.820 66.800,133.600 66.800 C 133.380 66.800,133.200 67.160,133.200 67.600 C 133.200 68.040,133.053 68.400,132.872 68.400 C 132.692 68.400,132.300 69.300,132.000 70.400 C 131.700 71.500,131.308 72.400,131.128 72.400 C 130.947 72.400,130.800 72.940,130.800 73.600 C 130.800 74.260,130.620 74.800,130.400 74.800 C 130.180 74.800,130.000 75.419,130.000 76.176 C 130.000 76.933,129.820 77.664,129.600 77.800 C 129.380 77.936,129.200 78.656,129.200 79.400 C 129.200 80.144,129.020 80.864,128.800 81.000 C 128.580 81.136,128.400 82.227,128.400 83.424 C 128.400 84.621,128.220 85.600,128.000 85.600 C 127.755 85.600,127.600 87.501,127.600 90.502 L 127.600 95.405 126.300 95.980 C 125.585 96.297,124.651 96.880,124.225 97.278 C 123.798 97.675,123.291 98.000,123.099 98.000 C 122.906 98.000,121.871 98.900,120.800 100.000 C 119.729 101.100,118.681 102.000,118.472 102.000 C 118.263 102.000,117.774 102.486,117.385 103.079 C 116.996 103.673,116.269 104.567,115.770 105.067 C 115.271 105.566,114.746 106.340,114.604 106.787 C 114.462 107.234,114.178 107.600,113.973 107.600 C 113.768 107.600,113.600 107.960,113.600 108.400 C 113.600 108.840,113.420 109.200,113.200 109.200 C 112.980 109.200,112.800 109.560,112.800 110.000 C 112.800 110.440,112.620 110.800,112.400 110.800 C 112.180 110.800,112.000 111.130,112.000 111.533 C 112.000 111.937,111.877 112.390,111.726 112.541 C 110.628 113.639,109.893 120.039,110.800 120.600 C 111.020 120.736,111.200 121.199,111.200 121.629 C 111.200 123.179,116.443 129.200,117.793 129.200 C 118.127 129.200,118.400 129.380,118.400 129.600 C 118.400 129.820,118.940 130.000,119.600 130.000 C 120.260 130.000,120.800 130.180,120.800 130.400 C 120.800 130.651,123.299 130.800,127.500 130.799 L 134.200 130.798 134.076 135.399 C 133.993 138.453,134.094 140.000,134.376 140.000 C 134.643 140.000,134.800 141.330,134.800 143.600 C 134.800 145.733,134.963 147.200,135.200 147.200 C 135.420 147.200,135.600 147.999,135.600 148.976 C 135.600 149.953,135.780 150.864,136.000 151.000 C 136.220 151.136,136.400 151.766,136.400 152.400 C 136.400 153.034,136.580 153.664,136.800 153.800 C 137.020 153.936,137.200 154.577,137.200 155.224 C 137.200 155.871,137.380 156.400,137.600 156.400 C 137.820 156.400,138.000 156.940,138.000 157.600 C 138.000 158.260,138.180 158.800,138.400 158.800 C 138.620 158.800,138.800 159.160,138.800 159.600 C 138.800 160.040,138.980 160.400,139.200 160.400 C 139.420 160.400,139.600 160.749,139.600 161.176 C 139.600 161.603,139.780 162.064,140.000 162.200 C 140.220 162.336,140.400 162.887,140.400 163.424 C 140.400 163.961,140.580 164.400,140.800 164.400 C 141.020 164.400,141.200 164.760,141.200 165.200 C 141.200 165.640,141.380 166.000,141.600 166.000 C 141.820 166.000,142.000 166.338,142.000 166.751 C 142.000 167.164,142.270 167.726,142.600 168.000 C 142.930 168.274,143.200 168.666,143.200 168.871 C 143.200 169.387,146.380 174.055,147.272 174.847 C 147.672 175.203,148.000 175.687,148.000 175.923 C 148.000 176.363,158.576 187.200,159.005 187.200 C 159.136 187.200,159.819 187.739,160.522 188.398 C 161.225 189.057,162.025 189.597,162.300 189.598 C 162.575 189.599,162.800 189.753,162.800 189.939 C 162.800 190.126,163.520 190.603,164.400 191.000 C 165.280 191.397,166.000 191.874,166.000 192.061 C 166.000 192.247,166.360 192.400,166.800 192.400 C 167.240 192.400,167.600 192.580,167.600 192.800 C 167.600 193.020,167.960 193.200,168.400 193.200 C 168.840 193.200,169.200 193.380,169.200 193.600 C 169.200 193.820,169.560 194.000,170.000 194.000 C 170.440 194.000,170.800 194.180,170.800 194.400 C 170.800 194.620,171.160 194.800,171.600 194.800 C 172.040 194.800,172.400 194.980,172.400 195.200 C 172.400 195.420,172.760 195.600,173.200 195.600 C 173.640 195.600,174.000 195.780,174.000 196.000 C 174.000 196.220,174.360 196.400,174.800 196.400 C 175.240 196.400,175.600 196.580,175.600 196.800 C 175.600 197.020,176.039 197.200,176.576 197.200 C 177.113 197.200,177.664 197.380,177.800 197.600 C 177.936 197.820,178.487 198.000,179.024 198.000 C 179.561 198.000,180.000 198.180,180.000 198.400 C 180.000 198.620,180.619 198.800,181.376 198.800 C 182.133 198.800,182.864 198.980,183.000 199.200 C 183.136 199.420,183.957 199.600,184.824 199.600 C 185.691 199.600,186.400 199.780,186.400 200.000 C 186.400 200.222,187.467 200.400,188.800 200.400 C 190.133 200.400,191.200 200.578,191.200 200.800 C 191.200 201.345,209.063 201.345,209.400 200.800 C 209.536 200.580,210.616 200.400,211.800 200.400 C 212.984 200.400,214.064 200.220,214.200 200.000 C 214.336 199.780,215.157 199.600,216.024 199.600 C 216.891 199.600,217.600 199.420,217.600 199.200 C 217.600 198.980,218.140 198.800,218.800 198.800 C 219.460 198.800,220.000 198.620,220.000 198.400 C 220.000 198.180,220.540 198.000,221.200 198.000 C 221.860 198.000,222.400 197.820,222.400 197.600 C 222.400 197.380,222.850 197.200,223.400 197.200 C 223.950 197.200,224.400 197.020,224.400 196.800 C 224.400 196.580,224.839 196.400,225.376 196.400 C 225.913 196.400,226.464 196.220,226.600 196.000 C 226.736 195.780,227.197 195.600,227.624 195.600 C 228.051 195.600,228.400 195.420,228.400 195.200 C 228.400 194.980,228.760 194.800,229.200 194.800 C 229.640 194.800,230.000 194.620,230.000 194.400 C 230.000 194.180,230.360 194.000,230.800 194.000 C 231.240 194.000,231.600 193.820,231.600 193.600 C 231.600 193.380,231.960 193.200,232.400 193.200 C 232.840 193.200,233.200 193.040,233.200 192.844 C 233.200 192.648,234.035 192.096,235.055 191.616 C 237.031 190.687,240.641 188.155,241.549 187.061 C 241.851 186.697,242.258 186.400,242.454 186.400 C 242.973 186.400,251.200 178.090,251.200 177.565 C 251.200 177.321,251.740 176.617,252.400 176.000 C 253.060 175.383,253.600 174.696,253.600 174.473 C 253.600 174.249,253.745 174.007,253.923 173.933 C 254.363 173.752,256.452 170.562,257.415 168.600 C 257.847 167.720,258.335 166.940,258.500 166.867 C 258.665 166.793,258.800 166.388,258.800 165.967 C 258.800 165.545,258.980 165.200,259.200 165.200 C 259.420 165.200,259.600 164.851,259.600 164.424 C 259.600 163.997,259.780 163.536,260.000 163.400 C 260.220 163.264,260.400 162.713,260.400 162.176 C 260.400 161.639,260.580 161.200,260.800 161.200 C 261.020 161.200,261.200 160.840,261.200 160.400 C 261.200 159.960,261.380 159.600,261.600 159.600 C 261.820 159.600,262.000 159.060,262.000 158.400 C 262.000 157.740,262.180 157.200,262.400 157.200 C 262.620 157.200,262.800 156.671,262.800 156.024 C 262.800 155.377,262.980 154.736,263.200 154.600 C 263.420 154.464,263.600 153.834,263.600 153.200 C 263.600 152.566,263.780 151.936,264.000 151.800 C 264.220 151.664,264.400 150.764,264.400 149.800 C 264.400 148.836,264.580 147.936,264.800 147.800 C 265.020 147.664,265.200 146.033,265.200 144.176 C 265.200 142.192,265.365 140.800,265.600 140.800 C 265.843 140.800,266.000 139.000,266.000 136.200 C 266.000 133.400,265.843 131.600,265.600 131.600 C 265.380 131.600,265.200 131.420,265.200 131.200 C 265.200 130.949,267.800 130.800,272.200 130.800 C 276.600 130.800,279.200 130.651,279.200 130.400 C 279.200 130.180,279.740 130.000,280.400 130.000 C 281.060 130.000,281.600 129.820,281.600 129.600 C 281.600 129.380,281.834 129.200,282.120 129.200 C 282.856 129.200,284.793 128.259,284.797 127.900 C 284.799 127.735,285.076 127.600,285.413 127.600 C 288.325 127.600,292.390 116.077,290.000 114.600 C 289.780 114.464,289.600 114.001,289.600 113.571 C 289.600 113.141,289.440 112.477,289.244 112.095 C 289.048 111.713,288.480 110.545,287.981 109.500 C 287.482 108.455,286.923 107.600,286.737 107.600 C 286.552 107.600,286.400 107.280,286.400 106.888 C 286.400 106.497,286.040 105.917,285.600 105.600 C 285.160 105.283,284.800 104.781,284.800 104.484 C 284.800 103.886,278.938 98.000,278.342 98.000 C 278.136 98.000,277.580 97.640,277.108 97.200 C 276.636 96.760,276.013 96.400,275.725 96.400 C 275.436 96.400,275.200 96.220,275.200 96.000 C 275.200 95.780,274.840 95.600,274.400 95.600 C 273.960 95.600,273.600 95.420,273.600 95.200 C 273.600 94.980,273.330 94.800,273.000 94.800 C 272.505 94.800,272.400 94.069,272.400 90.624 C 272.400 88.271,272.225 86.339,272.000 86.200 C 271.780 86.064,271.600 85.074,271.600 84.000 C 271.600 82.926,271.420 81.936,271.200 81.800 C 270.980 81.664,270.800 80.944,270.800 80.200 C 270.800 79.456,270.620 78.736,270.400 78.600 C 270.180 78.464,270.000 77.733,270.000 76.976 C 270.000 76.219,269.820 75.600,269.600 75.600 C 269.380 75.600,269.200 75.060,269.200 74.400 C 269.200 73.740,269.020 73.200,268.800 73.200 C 268.580 73.200,268.400 72.761,268.400 72.224 C 268.400 71.687,268.220 71.136,268.000 71.000 C 267.780 70.864,267.600 70.403,267.600 69.976 C 267.600 69.549,267.420 69.200,267.200 69.200 C 266.980 69.200,266.800 68.840,266.800 68.400 C 266.800 67.960,266.620 67.600,266.400 67.600 C 266.180 67.600,266.000 67.223,266.000 66.762 C 266.000 66.301,265.679 65.446,265.286 64.862 C 264.893 64.278,264.308 63.260,263.986 62.600 C 263.665 61.940,263.311 61.310,263.200 61.200 C 263.089 61.090,262.730 60.460,262.402 59.800 C 262.074 59.140,261.489 58.309,261.103 57.953 C 260.716 57.597,260.400 57.078,260.400 56.800 C 260.400 56.522,260.067 56.003,259.659 55.647 C 259.252 55.291,258.637 54.460,258.293 53.800 C 257.949 53.140,257.333 52.240,256.923 51.800 C 256.513 51.360,255.738 50.370,255.199 49.600 C 253.514 47.192,247.166 41.200,246.299 41.200 C 246.012 41.200,245.517 40.840,245.200 40.400 C 244.883 39.960,244.303 39.600,243.912 39.600 C 243.520 39.600,243.200 39.420,243.200 39.200 C 243.200 38.974,242.067 38.800,240.600 38.800 C 239.133 38.800,238.000 38.974,238.000 39.200 C 238.000 39.420,237.656 39.600,237.235 39.600 C 236.660 39.600,236.200 40.290,235.379 42.383 C 233.939 46.054,234.392 48.123,237.176 50.586 C 250.769 62.612,257.921 75.646,259.077 90.500 L 259.319 93.600 200.059 93.600 L 140.800 93.600 140.800 91.670 C 140.800 79.639,147.962 64.231,158.032 54.600 C 164.278 48.625,164.638 48.207,165.175 46.290 C 165.626 44.677,165.609 44.206,165.048 42.804 C 164.692 41.913,164.400 40.905,164.400 40.563 C 164.400 39.762,163.434 38.800,162.629 38.800 C 162.283 38.800,162.000 38.620,162.000 38.400 C 162.000 38.174,160.867 38.000,159.400 38.000 C 157.933 38.000,156.800 38.174,156.800 38.400 M266.600 106.969 C 270.502 108.870,276.238 115.494,275.029 116.704 C 274.867 116.867,258.414 117.045,238.467 117.100 C 119.444 117.427,124.400 117.440,124.404 116.800 C 124.419 114.467,128.803 109.416,132.382 107.609 C 136.207 105.678,135.886 105.687,201.600 105.745 L 264.200 105.800 266.600 106.969 M252.329 135.600 C 252.455 140.925,252.083 144.362,250.898 148.800 C 250.574 150.010,250.220 151.497,250.109 152.105 C 249.998 152.713,249.749 153.308,249.554 153.429 C 249.359 153.549,249.200 153.910,249.200 154.232 C 249.200 160.069,236.337 175.545,226.600 181.423 C 196.639 199.511,155.999 181.938,148.842 147.800 C 148.611 146.700,148.238 144.955,148.011 143.923 C 147.558 141.854,147.441 130.692,147.868 130.265 C 148.016 130.118,171.551 130.043,200.168 130.099 L 252.200 130.200 252.329 135.600 M28.800 173.600 C 28.800 173.822,27.733 174.000,26.400 174.000 C 25.067 174.000,24.000 174.178,24.000 174.400 C 24.000 174.620,23.402 174.800,22.671 174.800 C 21.485 174.800,18.837 175.490,16.600 176.383 C 14.309 177.297,10.400 179.363,10.400 179.660 C 10.400 179.847,10.217 180.000,9.994 180.000 C 9.403 180.000,3.901 185.621,3.232 186.908 C 2.920 187.508,2.515 188.000,2.332 188.000 C 2.150 188.000,2.000 188.360,2.000 188.800 C 2.000 189.240,1.820 189.600,1.600 189.600 C 1.380 189.600,1.200 189.945,1.200 190.367 C 1.200 190.788,0.975 191.208,0.700 191.300 C -0.025 191.542,-0.025 210.858,0.700 211.100 C 0.975 211.192,1.200 211.612,1.200 212.033 C 1.200 212.455,1.380 212.800,1.600 212.800 C 1.820 212.800,2.000 213.120,2.000 213.512 C 2.000 213.903,2.360 214.483,2.800 214.800 C 3.270 215.139,3.600 215.835,3.600 216.488 C 3.600 217.100,3.780 217.600,4.000 217.600 C 4.220 217.600,4.400 217.960,4.400 218.400 C 4.400 218.840,4.580 219.200,4.800 219.200 C 5.020 219.200,5.200 219.740,5.200 220.400 C 5.200 221.060,5.380 221.600,5.600 221.600 C 5.820 221.600,6.000 222.050,6.000 222.600 C 6.000 223.150,6.180 223.600,6.400 223.600 C 6.620 223.600,6.800 223.960,6.800 224.400 C 6.800 224.840,6.980 225.200,7.200 225.200 C 7.420 225.200,7.600 225.740,7.600 226.400 C 7.600 227.060,7.780 227.600,8.000 227.600 C 8.220 227.600,8.400 227.866,8.400 228.192 C 8.400 229.030,10.396 234.923,10.835 235.380 C 11.036 235.589,11.200 236.079,11.200 236.468 C 11.200 236.857,11.560 237.817,12.000 238.600 C 12.440 239.383,12.800 240.379,12.800 240.812 C 12.800 241.245,12.980 241.600,13.200 241.600 C 13.420 241.600,13.600 242.039,13.600 242.576 C 13.600 243.113,13.780 243.664,14.000 243.800 C 14.220 243.936,14.400 244.397,14.400 244.824 C 14.400 245.251,14.580 245.600,14.800 245.600 C 15.020 245.600,15.200 246.140,15.200 246.800 C 15.200 247.460,15.380 248.000,15.600 248.000 C 15.820 248.000,16.000 248.360,16.000 248.800 C 16.000 249.240,16.180 249.600,16.400 249.600 C 16.620 249.600,16.800 250.140,16.800 250.800 C 16.800 251.460,16.980 252.000,17.200 252.000 C 17.420 252.000,17.600 252.450,17.600 253.000 C 17.600 253.550,17.780 254.000,18.000 254.000 C 18.220 254.000,18.400 254.450,18.400 255.000 C 18.400 255.550,18.580 256.000,18.800 256.000 C 19.020 256.000,19.200 256.450,19.200 257.000 C 19.200 257.550,19.380 258.000,19.600 258.000 C 19.820 258.000,20.000 258.360,20.000 258.800 C 20.000 259.240,20.180 259.600,20.400 259.600 C 20.620 259.600,20.800 260.140,20.800 260.800 C 20.800 261.460,20.980 262.000,21.200 262.000 C 21.420 262.000,21.600 262.540,21.600 263.200 C 21.600 263.860,21.780 264.400,22.000 264.400 C 22.220 264.400,22.400 264.760,22.400 265.200 C 22.400 265.640,22.580 266.000,22.800 266.000 C 23.020 266.000,23.200 266.540,23.200 267.200 C 23.200 267.860,23.380 268.400,23.600 268.400 C 23.820 268.400,24.000 268.760,24.000 269.200 C 24.000 269.640,24.180 270.000,24.400 270.000 C 24.620 270.000,24.800 270.435,24.800 270.968 C 24.800 276.841,34.890 276.787,36.832 270.903 C 37.524 268.808,37.083 267.017,34.000 259.400 C 33.822 258.960,33.102 257.070,32.400 255.200 C 31.698 253.330,30.978 251.440,30.800 251.000 C 30.622 250.560,29.927 248.760,29.256 247.000 C 28.585 245.240,27.109 241.370,25.976 238.400 C 24.843 235.430,23.511 231.830,23.016 230.400 L 22.116 227.800 199.658 227.800 C 297.306 227.800,377.200 227.927,377.200 228.081 C 377.200 228.236,377.023 228.776,376.807 229.281 C 376.591 229.787,375.054 233.800,373.391 238.200 C 369.959 247.281,368.072 252.235,367.600 253.400 C 367.422 253.840,366.702 255.730,366.000 257.600 C 365.298 259.470,364.578 261.360,364.401 261.800 C 361.331 269.405,361.602 272.302,365.606 274.667 C 366.263 275.055,366.800 275.514,366.800 275.686 C 366.800 275.859,367.700 276.000,368.800 276.000 C 369.900 276.000,370.800 275.820,370.800 275.600 C 370.800 275.380,371.154 275.200,371.587 275.200 C 372.703 275.200,375.200 272.581,375.200 271.410 C 375.200 270.881,375.380 270.336,375.600 270.200 C 375.820 270.064,376.000 269.603,376.000 269.176 C 376.000 268.749,376.180 268.400,376.400 268.400 C 376.620 268.400,376.800 267.860,376.800 267.200 C 376.800 266.540,376.980 266.000,377.200 266.000 C 377.420 266.000,377.600 265.640,377.600 265.200 C 377.600 264.760,377.780 264.400,378.000 264.400 C 378.220 264.400,378.400 263.860,378.400 263.200 C 378.400 262.540,378.580 262.000,378.800 262.000 C 379.020 262.000,379.200 261.561,379.200 261.024 C 379.200 260.487,379.380 259.936,379.600 259.800 C 379.820 259.664,380.000 259.203,380.000 258.776 C 380.000 258.349,380.180 258.000,380.400 258.000 C 380.620 258.000,380.800 257.550,380.800 257.000 C 380.800 256.450,380.980 256.000,381.200 256.000 C 381.420 256.000,381.600 255.550,381.600 255.000 C 381.600 254.450,381.780 254.000,382.000 254.000 C 382.220 254.000,382.400 253.550,382.400 253.000 C 382.400 252.450,382.580 252.000,382.800 252.000 C 383.020 252.000,383.200 251.561,383.200 251.024 C 383.200 250.487,383.380 249.936,383.600 249.800 C 383.820 249.664,384.000 249.203,384.000 248.776 C 384.000 248.349,384.180 248.000,384.400 248.000 C 384.620 248.000,384.800 247.460,384.800 246.800 C 384.800 246.140,384.980 245.600,385.200 245.600 C 385.420 245.600,385.600 245.251,385.600 244.824 C 385.600 244.397,385.780 243.936,386.000 243.800 C 386.220 243.664,386.400 243.113,386.400 242.576 C 386.400 242.039,386.580 241.600,386.800 241.600 C 387.020 241.600,387.200 241.150,387.200 240.600 C 387.200 240.050,387.380 239.600,387.600 239.600 C 387.820 239.600,388.000 239.251,388.000 238.824 C 388.000 238.397,388.180 237.936,388.400 237.800 C 388.620 237.664,388.800 237.128,388.800 236.610 C 388.800 236.091,388.941 235.607,389.113 235.533 C 389.465 235.384,391.600 229.063,391.600 228.172 C 391.600 227.858,391.780 227.600,392.000 227.600 C 392.220 227.600,392.400 227.060,392.400 226.400 C 392.400 225.740,392.580 225.200,392.800 225.200 C 393.020 225.200,393.200 224.840,393.200 224.400 C 393.200 223.960,393.380 223.600,393.600 223.600 C 393.820 223.600,394.000 223.150,394.000 222.600 C 394.000 222.050,394.180 221.600,394.400 221.600 C 394.620 221.600,394.800 221.182,394.800 220.671 C 394.800 220.108,395.589 218.897,396.800 217.600 C 397.900 216.422,398.800 215.235,398.800 214.963 C 398.800 214.690,399.025 214.392,399.300 214.300 C 400.027 214.058,400.027 189.942,399.300 189.700 C 399.025 189.608,398.800 189.188,398.800 188.767 C 398.800 188.345,398.650 188.000,398.468 188.000 C 398.285 188.000,397.880 187.508,397.568 186.906 C 396.880 185.581,393.526 182.157,391.600 180.815 C 390.830 180.278,390.110 179.729,390.000 179.596 C 389.693 179.224,384.508 176.800,384.020 176.800 C 383.783 176.800,383.277 176.628,382.895 176.418 C 381.759 175.795,377.076 174.800,375.274 174.800 C 374.353 174.800,373.600 174.620,373.600 174.400 C 373.600 174.161,372.067 174.000,369.800 174.000 C 367.533 174.000,366.000 173.839,366.000 173.600 C 366.000 173.351,363.667 173.200,359.800 173.200 C 355.933 173.200,353.600 173.351,353.600 173.600 C 353.600 173.837,352.133 174.000,350.000 174.000 C 347.867 174.000,346.400 174.163,346.400 174.400 C 346.400 174.620,345.815 174.801,345.100 174.802 C 344.385 174.804,343.284 175.074,342.654 175.402 C 342.024 175.731,341.259 176.000,340.954 176.000 C 340.649 176.000,340.400 176.180,340.400 176.400 C 340.400 176.620,340.080 176.800,339.688 176.800 C 339.297 176.800,338.717 177.160,338.400 177.600 C 338.083 178.040,337.608 178.400,337.344 178.400 C 337.080 178.400,335.815 179.446,334.532 180.724 C 333.249 182.002,331.883 183.167,331.497 183.312 C 331.110 183.458,330.586 184.033,330.332 184.589 C 330.079 185.145,329.720 185.600,329.536 185.600 C 329.351 185.600,329.200 186.129,329.200 186.776 C 329.200 187.423,329.020 188.064,328.800 188.200 C 328.580 188.336,328.400 189.056,328.400 189.800 C 328.400 190.544,328.220 191.264,328.000 191.400 C 327.780 191.536,327.600 192.166,327.600 192.800 C 327.600 193.434,327.420 194.064,327.200 194.200 C 326.980 194.336,326.800 195.056,326.800 195.800 C 326.800 196.544,326.639 197.252,326.442 197.374 C 326.245 197.495,325.988 198.271,325.871 199.097 C 325.418 202.276,324.747 205.429,324.382 206.095 C 324.172 206.477,324.000 207.332,324.000 207.995 C 324.000 208.658,323.820 209.200,323.600 209.200 C 323.380 209.200,323.200 209.819,323.200 210.576 C 323.200 211.333,323.020 212.064,322.800 212.200 C 322.580 212.336,322.400 212.887,322.400 213.424 L 322.400 214.400 200.000 214.400 L 77.600 214.400 77.600 213.424 C 77.600 212.887,77.420 212.336,77.200 212.200 C 76.980 212.064,76.800 211.434,76.800 210.800 C 76.800 210.166,76.620 209.536,76.400 209.400 C 76.180 209.264,76.000 208.623,76.000 207.976 C 76.000 207.329,75.820 206.800,75.600 206.800 C 75.380 206.800,75.200 206.241,75.200 205.557 C 75.200 204.221,74.152 199.187,73.561 197.681 C 73.362 197.176,73.200 196.331,73.200 195.805 C 73.200 195.278,73.020 194.736,72.800 194.600 C 72.580 194.464,72.400 193.461,72.400 192.370 C 72.400 190.297,71.623 187.200,71.103 187.200 C 70.936 187.200,70.800 186.840,70.800 186.400 C 70.800 185.960,70.620 185.600,70.400 185.600 C 70.180 185.600,70.000 185.240,70.000 184.800 C 70.000 184.360,69.820 184.000,69.600 184.000 C 69.380 184.000,69.200 183.711,69.200 183.358 C 69.200 181.521,60.747 174.800,58.437 174.800 C 58.003 174.800,57.536 174.620,57.400 174.400 C 57.264 174.180,56.533 174.000,55.776 174.000 C 55.019 174.000,54.400 173.820,54.400 173.600 C 54.400 173.342,49.867 173.200,41.600 173.200 C 33.333 173.200,28.800 173.342,28.800 173.600 M52.569 186.571 C 55.901 187.573,59.200 190.601,59.200 192.656 C 59.200 194.846,48.607 197.579,40.054 197.597 C 33.507 197.610,31.504 206.147,37.343 209.153 C 40.070 210.556,51.483 209.533,58.800 207.229 C 60.230 206.779,61.593 206.408,61.830 206.405 C 62.390 206.398,64.199 213.706,63.857 214.596 C 63.640 215.162,63.266 215.236,61.697 215.026 C 60.654 214.887,51.790 214.642,42.000 214.483 L 24.200 214.193 21.819 212.997 C 13.201 208.666,10.567 200.581,15.544 193.735 C 18.155 190.143,22.765 187.990,31.200 186.422 C 34.446 185.819,50.440 185.930,52.569 186.571 M366.000 186.787 C 379.528 187.871,387.682 193.342,387.570 201.257 C 387.494 206.553,382.693 212.469,377.108 214.148 C 373.841 215.130,336.257 215.241,336.070 214.269 C 335.953 213.663,337.478 206.879,337.824 206.465 C 337.886 206.391,339.346 206.817,341.068 207.412 C 347.861 209.759,361.295 211.199,363.889 209.857 C 368.117 207.671,368.430 202.069,364.482 199.258 C 363.644 198.662,362.155 198.376,357.997 198.011 C 345.418 196.907,340.256 194.987,341.806 191.987 C 344.303 187.159,351.453 185.622,366.000 186.787 M313.200 276.199 C 305.369 277.963,299.744 283.341,296.881 291.800 C 292.133 305.833,292.041 325.088,296.671 335.600 C 302.733 349.364,312.910 356.070,328.600 356.639 C 331.900 356.759,334.992 357.048,335.471 357.281 C 335.950 357.514,336.850 357.578,337.471 357.425 C 338.092 357.271,339.500 356.990,340.600 356.800 C 344.752 356.085,350.085 354.505,350.333 353.916 C 350.407 353.742,350.705 353.600,350.996 353.600 C 351.637 353.600,354.947 351.920,355.133 351.500 C 355.207 351.335,355.612 351.200,356.033 351.200 C 356.455 351.200,356.800 351.020,356.800 350.800 C 356.800 350.580,357.030 350.400,357.312 350.400 C 357.593 350.400,358.083 350.040,358.400 349.600 C 358.717 349.160,359.221 348.800,359.520 348.800 C 359.818 348.800,360.754 348.080,361.600 347.200 C 362.446 346.320,363.296 345.600,363.490 345.600 C 364.004 345.600,366.800 342.966,366.800 342.482 C 366.800 342.256,367.297 341.650,367.906 341.136 C 368.514 340.621,369.454 339.570,369.995 338.800 C 370.536 338.030,371.298 337.051,371.689 336.625 C 372.080 336.198,372.400 335.628,372.400 335.358 C 372.400 335.088,372.557 334.807,372.749 334.733 C 373.221 334.553,375.200 330.581,375.200 329.813 C 375.200 329.476,375.380 329.200,375.600 329.200 C 375.820 329.200,376.000 328.840,376.000 328.400 C 376.000 327.960,376.180 327.600,376.400 327.600 C 376.620 327.600,376.800 327.240,376.800 326.800 C 376.800 326.360,376.980 326.000,377.200 326.000 C 377.420 326.000,377.600 325.550,377.600 325.000 C 377.600 324.450,377.780 324.000,378.000 324.000 C 378.220 324.000,378.400 323.651,378.400 323.224 C 378.400 322.797,378.580 322.336,378.800 322.200 C 379.020 322.064,379.200 321.513,379.200 320.976 C 379.200 320.439,379.380 320.000,379.600 320.000 C 379.820 320.000,380.000 319.471,380.000 318.824 C 380.000 318.177,380.180 317.536,380.400 317.400 C 380.620 317.264,380.800 316.533,380.800 315.776 C 380.800 315.019,380.980 314.400,381.200 314.400 C 381.420 314.400,381.600 313.680,381.600 312.800 C 381.600 311.920,381.780 311.200,382.000 311.200 C 382.220 311.200,382.400 310.401,382.400 309.424 C 382.400 308.447,382.580 307.536,382.800 307.400 C 383.020 307.264,383.200 306.184,383.200 305.000 C 383.200 303.816,383.380 302.736,383.600 302.600 C 383.827 302.460,384.000 300.470,384.000 298.000 C 384.000 295.530,383.827 293.540,383.600 293.400 C 383.380 293.264,383.200 292.634,383.200 292.000 C 383.200 291.366,383.020 290.736,382.800 290.600 C 382.580 290.464,382.400 290.043,382.400 289.665 C 382.400 289.286,382.040 288.717,381.600 288.400 C 381.160 288.083,380.800 287.587,380.800 287.298 C 380.800 286.648,378.199 284.000,377.560 284.000 C 377.304 284.000,376.803 283.671,376.447 283.270 C 376.091 282.868,375.215 282.284,374.500 281.972 C 373.785 281.660,373.200 281.269,373.200 281.102 C 373.200 280.936,372.851 280.800,372.424 280.800 C 371.997 280.800,371.536 280.620,371.400 280.400 C 371.264 280.180,370.353 280.000,369.376 280.000 C 368.399 280.000,367.600 279.820,367.600 279.600 C 367.600 278.977,365.756 279.130,365.200 279.800 C 364.879 280.187,363.991 280.400,362.697 280.400 C 361.594 280.400,359.546 280.611,358.146 280.869 C 355.390 281.377,349.974 280.895,345.600 279.753 C 333.328 276.548,318.749 274.949,313.200 276.199 M75.600 277.184 C 71.025 277.601,65.667 278.541,59.400 280.025 C 56.540 280.702,53.300 281.456,52.200 281.700 C 49.532 282.292,40.139 282.233,38.600 281.615 C 36.887 280.927,30.000 280.548,30.000 281.141 C 30.000 281.394,29.460 281.600,28.800 281.600 C 28.140 281.600,27.600 281.736,27.600 281.902 C 27.600 282.069,27.028 282.458,26.328 282.768 C 24.777 283.454,19.200 288.951,19.200 289.794 C 19.200 290.127,19.020 290.400,18.800 290.400 C 18.580 290.400,18.400 290.760,18.400 291.200 C 18.400 291.640,18.220 292.000,18.000 292.000 C 17.780 292.000,17.600 292.540,17.600 293.200 C 17.600 293.860,17.420 294.400,17.200 294.400 C 16.663 294.400,16.663 304.668,17.200 305.000 C 17.420 305.136,17.600 306.227,17.600 307.424 C 17.600 308.621,17.780 309.600,18.000 309.600 C 18.220 309.600,18.400 310.500,18.400 311.600 C 18.400 312.700,18.580 313.600,18.800 313.600 C 19.020 313.600,19.200 314.320,19.200 315.200 C 19.200 316.080,19.380 316.800,19.600 316.800 C 19.820 316.800,20.000 317.329,20.000 317.976 C 20.000 318.623,20.180 319.264,20.400 319.400 C 20.620 319.536,20.800 320.076,20.800 320.600 C 20.800 321.124,20.980 321.664,21.200 321.800 C 21.420 321.936,21.600 322.487,21.600 323.024 C 21.600 323.561,21.780 324.000,22.000 324.000 C 22.220 324.000,22.400 324.450,22.400 325.000 C 22.400 325.550,22.580 326.000,22.800 326.000 C 23.020 326.000,23.200 326.360,23.200 326.800 C 23.200 327.240,23.380 327.600,23.600 327.600 C 23.820 327.600,24.000 327.960,24.000 328.400 C 24.000 328.840,24.180 329.200,24.400 329.200 C 24.620 329.200,24.800 329.476,24.800 329.813 C 24.800 330.427,26.686 334.423,27.153 334.800 C 27.290 334.910,27.656 335.495,27.968 336.100 C 28.280 336.705,28.685 337.200,28.868 337.200 C 29.050 337.200,29.200 337.426,29.200 337.702 C 29.200 337.978,29.920 338.969,30.800 339.903 C 31.680 340.837,32.400 341.707,32.400 341.835 C 32.400 342.223,36.878 346.400,37.293 346.400 C 37.505 346.400,38.183 346.940,38.800 347.600 C 39.417 348.260,40.169 348.800,40.472 348.800 C 40.775 348.800,41.283 349.160,41.600 349.600 C 41.917 350.040,42.407 350.400,42.688 350.400 C 42.970 350.400,43.200 350.559,43.200 350.753 C 43.200 350.948,43.515 351.207,43.900 351.329 C 44.285 351.451,45.140 351.859,45.800 352.236 C 47.714 353.329,48.349 353.600,48.995 353.600 C 49.328 353.600,49.600 353.780,49.600 354.000 C 49.600 354.220,49.872 354.400,50.205 354.400 C 50.538 354.400,51.123 354.562,51.505 354.761 C 51.887 354.960,53.010 355.332,54.000 355.588 C 54.990 355.844,56.353 356.222,57.028 356.427 C 57.704 356.632,58.908 356.800,59.705 356.800 C 60.501 356.800,61.264 356.980,61.400 357.200 C 61.706 357.696,64.103 357.729,64.620 357.244 C 64.829 357.049,67.790 356.798,71.200 356.688 C 97.255 355.843,109.930 337.315,105.812 306.093 C 102.861 283.713,94.260 275.484,75.600 277.184 M88.471 290.223 C 92.583 293.113,95.285 305.359,94.616 318.082 C 93.562 338.164,82.858 346.969,63.345 343.804 C 45.129 340.850,34.911 327.826,30.825 302.354 C 29.703 295.367,32.351 293.242,41.408 293.863 C 48.541 294.352,53.526 293.904,62.455 291.969 C 79.539 288.268,85.154 287.891,88.471 290.223 M330.200 290.384 C 347.488 294.175,349.746 294.519,355.600 294.252 C 358.350 294.127,361.646 293.912,362.924 293.774 C 368.936 293.125,370.981 296.947,369.251 305.600 C 363.986 331.944,351.653 344.186,330.400 344.167 C 316.809 344.155,310.028 338.867,306.697 325.684 C 304.205 315.819,306.533 296.274,310.763 291.560 C 313.630 288.363,319.391 288.015,330.200 290.384 M67.311 363.176 C 65.418 363.484,63.601 365.199,63.600 366.676 C 63.600 367.158,63.420 367.664,63.200 367.800 C 62.980 367.936,62.800 368.566,62.800 369.200 C 62.800 369.834,62.980 370.464,63.200 370.600 C 63.420 370.736,63.600 371.467,63.600 372.224 C 63.600 372.981,63.780 373.600,64.000 373.600 C 64.220 373.600,64.405 373.915,64.411 374.300 C 64.417 374.685,64.869 375.810,65.414 376.800 C 65.960 377.790,66.515 378.915,66.650 379.300 C 66.784 379.685,67.052 380.000,67.247 380.000 C 67.441 380.000,67.600 380.255,67.600 380.567 C 67.600 382.183,78.338 391.600,80.181 391.600 C 80.521 391.600,80.800 391.780,80.800 392.000 C 80.800 392.220,81.162 392.400,81.605 392.400 C 82.048 392.400,82.768 392.580,83.205 392.800 C 83.642 393.020,84.358 393.380,84.795 393.600 C 85.232 393.820,86.121 394.000,86.771 394.000 C 87.421 394.000,88.064 394.180,88.200 394.400 C 88.543 394.954,311.457 394.954,311.800 394.400 C 311.936 394.180,312.757 394.000,313.624 394.000 C 314.491 394.000,315.200 393.820,315.200 393.600 C 315.200 393.380,315.740 393.200,316.400 393.200 C 317.060 393.200,317.600 393.020,317.600 392.800 C 317.600 392.580,317.960 392.400,318.400 392.400 C 318.840 392.400,319.200 392.220,319.200 392.000 C 319.200 391.780,319.491 391.600,319.846 391.600 C 320.642 391.600,324.400 389.589,324.400 389.163 C 324.400 388.993,324.765 388.738,325.211 388.596 C 326.257 388.264,331.600 383.005,331.600 382.308 C 331.600 382.016,331.960 381.517,332.400 381.200 C 332.840 380.883,333.200 380.380,333.200 380.083 C 333.200 379.786,333.479 379.264,333.820 378.923 C 334.160 378.582,334.543 377.785,334.670 377.152 C 334.796 376.518,335.058 376.000,335.250 376.000 C 335.443 376.000,335.600 375.651,335.600 375.224 C 335.600 374.797,335.780 374.336,336.000 374.200 C 336.220 374.064,336.400 373.344,336.400 372.600 C 336.400 371.856,336.580 371.136,336.800 371.000 C 337.319 370.679,337.319 368.921,336.800 368.600 C 336.580 368.464,336.400 367.907,336.400 367.363 C 336.400 366.284,333.841 363.404,333.222 363.786 C 333.021 363.911,332.075 363.803,331.119 363.547 C 327.945 362.698,324.449 365.057,323.228 368.871 C 321.353 374.728,315.130 380.048,308.542 381.426 C 304.939 382.180,96.411 382.299,92.033 381.549 C 84.597 380.277,78.508 375.085,76.639 368.424 C 75.322 363.731,72.757 362.288,67.311 363.176 " stroke="none" fill="#2c3c64" fill-rule="evenodd"></path><path id="path1" d="M148.014 130.774 C 146.614 133.389,148.014 145.838,150.540 153.237 C 165.293 196.443,225.174 200.905,246.333 160.375 C 251.031 151.376,254.182 134.877,251.986 130.774 C 251.580 130.015,250.578 130.000,200.000 130.000 C 149.422 130.000,148.420 130.015,148.014 130.774 M77.800 289.188 C 76.260 289.361,73.110 289.906,70.800 290.398 C 68.490 290.890,65.880 291.431,65.000 291.599 C 64.120 291.768,61.240 292.408,58.600 293.022 C 54.124 294.063,53.165 294.142,44.400 294.194 C 33.188 294.260,34.354 294.114,32.575 295.675 C 30.651 297.365,30.345 298.306,30.809 301.093 C 31.021 302.362,31.399 304.660,31.651 306.200 C 35.255 328.250,46.431 341.101,64.342 343.791 C 86.943 347.186,98.032 332.323,93.821 304.276 C 91.751 290.486,89.028 287.921,77.800 289.188 M315.383 289.152 C 310.883 289.930,308.896 292.889,307.158 301.400 C 301.392 329.626,312.249 346.682,334.296 344.035 C 350.600 342.077,361.017 333.106,366.383 316.400 C 367.849 311.835,367.943 311.475,368.800 307.200 C 370.512 298.656,369.899 295.592,366.198 294.178 C 364.368 293.479,364.011 293.491,358.800 294.416 C 354.687 295.147,342.816 293.795,335.820 291.800 C 329.138 289.894,318.822 288.558,315.383 289.152 " stroke="none" fill="#fad87a" fill-rule="evenodd"></path><path id="path2" d="M197.572 18.542 C 194.755 19.446,192.893 21.081,191.586 23.800 C 190.865 25.301,190.817 26.466,190.809 42.680 C 190.798 64.325,190.492 65.841,185.984 66.603 C 178.884 67.802,178.005 65.698,178.002 47.500 L 178.000 34.000 176.800 34.000 C 176.140 34.000,175.600 34.180,175.600 34.400 C 175.600 34.620,175.251 34.800,174.824 34.800 C 174.397 34.800,173.936 34.980,173.800 35.200 C 173.664 35.420,173.113 35.600,172.576 35.600 C 172.039 35.600,171.600 35.780,171.600 36.000 C 171.600 36.220,171.240 36.400,170.800 36.400 C 170.360 36.400,170.000 36.580,170.000 36.800 C 170.000 37.020,169.640 37.200,169.200 37.200 C 168.760 37.200,168.400 37.380,168.400 37.600 C 168.400 37.820,168.164 38.000,167.875 38.000 C 167.587 38.000,166.964 38.360,166.492 38.800 C 166.020 39.240,165.356 39.600,165.017 39.600 C 164.219 39.600,164.231 40.761,165.048 42.804 C 165.609 44.206,165.626 44.677,165.175 46.290 C 164.638 48.207,164.278 48.625,158.032 54.600 C 147.962 64.231,140.800 79.639,140.800 91.670 L 140.800 93.600 200.059 93.600 L 259.319 93.600 259.077 90.500 C 257.921 75.646,250.769 62.612,237.176 50.586 C 234.563 48.275,233.968 46.039,235.147 42.959 C 236.166 40.296,236.156 40.400,235.376 40.400 C 235.033 40.400,234.864 40.220,235.000 40.000 C 235.136 39.780,234.967 39.600,234.624 39.600 C 234.281 39.600,234.000 39.420,234.000 39.200 C 234.000 38.980,233.640 38.800,233.200 38.800 C 232.760 38.800,232.400 38.620,232.400 38.400 C 232.400 38.180,232.040 38.000,231.600 38.000 C 231.160 38.000,230.800 37.820,230.800 37.600 C 230.800 37.380,230.440 37.200,230.000 37.200 C 229.560 37.200,229.200 37.020,229.200 36.800 C 229.200 36.580,228.840 36.400,228.400 36.400 C 227.960 36.400,227.600 36.220,227.600 36.000 C 227.600 35.780,227.240 35.600,226.800 35.600 C 226.360 35.600,226.000 35.420,226.000 35.200 C 226.000 34.980,225.640 34.800,225.200 34.800 C 224.760 34.800,224.400 34.620,224.400 34.400 C 224.400 34.180,223.860 34.000,223.200 34.000 L 222.000 34.000 221.991 47.700 C 221.983 60.195,221.917 61.544,221.238 63.040 C 218.718 68.587,210.889 67.837,209.622 61.926 C 209.364 60.725,209.197 53.245,209.191 42.680 C 209.183 26.466,209.135 25.301,208.414 23.800 C 206.292 19.384,201.775 17.194,197.572 18.542 M196.900 188.676 C 197.285 188.776,197.915 188.776,198.300 188.676 C 198.685 188.575,198.370 188.493,197.600 188.493 C 196.830 188.493,196.515 188.575,196.900 188.676 M201.905 188.683 C 202.402 188.779,203.122 188.775,203.505 188.675 C 203.887 188.575,203.480 188.496,202.600 188.501 C 201.720 188.505,201.407 188.587,201.905 188.683 M61.100 215.082 C 61.595 215.178,62.405 215.178,62.900 215.082 C 63.395 214.987,62.990 214.909,62.000 214.909 C 61.010 214.909,60.605 214.987,61.100 215.082 M337.491 215.089 C 338.201 215.177,339.461 215.179,340.291 215.092 C 341.121 215.005,340.540 214.933,339.000 214.931 C 337.460 214.929,336.781 215.000,337.491 215.089 M78.500 289.076 C 78.885 289.176,79.515 289.176,79.900 289.076 C 80.285 288.975,79.970 288.893,79.200 288.893 C 78.430 288.893,78.115 288.975,78.500 289.076 M320.500 289.076 C 320.885 289.176,321.515 289.176,321.900 289.076 C 322.285 288.975,321.970 288.893,321.200 288.893 C 320.430 288.893,320.115 288.975,320.500 289.076 M36.700 293.889 C 37.415 293.978,38.585 293.978,39.300 293.889 C 40.015 293.801,39.430 293.728,38.000 293.728 C 36.570 293.728,35.985 293.801,36.700 293.889 M43.305 294.287 C 43.914 294.379,44.814 294.377,45.305 294.282 C 45.797 294.187,45.300 294.111,44.200 294.114 C 43.100 294.117,42.697 294.195,43.305 294.287 M47.500 294.282 C 47.995 294.378,48.805 294.378,49.300 294.282 C 49.795 294.187,49.390 294.109,48.400 294.109 C 47.410 294.109,47.005 294.187,47.500 294.282 M353.111 294.693 C 354.051 294.778,355.491 294.777,356.311 294.691 C 357.130 294.605,356.360 294.536,354.600 294.537 C 352.840 294.539,352.170 294.609,353.111 294.693 M94.550 314.600 C 94.551 317.020,94.616 317.958,94.696 316.685 C 94.776 315.412,94.775 313.432,94.694 312.285 C 94.614 311.138,94.549 312.180,94.550 314.600 M356.000 334.200 C 355.028 335.190,354.323 336.000,354.433 336.000 C 354.543 336.000,355.428 335.190,356.400 334.200 C 357.372 333.210,358.077 332.400,357.967 332.400 C 357.857 332.400,356.972 333.210,356.000 334.200 M44.200 334.400 C 45.059 335.280,45.852 336.000,45.962 336.000 C 46.072 336.000,45.459 335.280,44.600 334.400 C 43.741 333.520,42.948 332.800,42.838 332.800 C 42.728 332.800,43.341 333.520,44.200 334.400 " stroke="none" fill="#f65c93" fill-rule="evenodd"></path><path id="path3" d="M136.893 106.043 C 131.547 106.938,124.428 113.070,124.404 116.800 C 124.400 117.440,119.444 117.427,238.467 117.100 C 258.414 117.045,274.867 116.867,275.029 116.704 C 276.238 115.494,270.502 108.870,266.600 106.969 L 264.200 105.800 201.600 105.745 C 167.012 105.714,138.057 105.848,136.893 106.043 M31.200 186.445 C 26.529 187.377,24.825 187.828,22.620 188.714 C 6.964 195.010,11.499 213.752,28.800 214.257 C 46.956 214.786,64.000 214.686,64.004 214.049 C 64.013 212.670,62.224 206.400,61.823 206.405 C 61.590 206.408,60.230 206.779,58.800 207.229 C 51.483 209.533,40.070 210.556,37.343 209.153 C 31.487 206.139,33.489 197.610,40.054 197.597 C 48.607 197.579,59.200 194.846,59.200 192.656 C 59.200 190.504,55.729 187.428,52.296 186.537 C 49.909 185.918,34.185 185.849,31.200 186.445 M53.122 187.413 C 55.713 188.183,58.400 190.710,58.400 192.377 C 58.400 194.451,54.105 195.704,43.863 196.616 C 36.715 197.252,35.573 197.686,34.085 200.335 C 32.160 203.760,33.433 207.764,37.125 209.900 C 38.181 210.511,47.031 210.597,47.400 210.000 C 47.536 209.780,48.796 209.600,50.200 209.600 C 51.604 209.600,52.864 209.420,53.000 209.200 C 53.136 208.980,54.036 208.800,55.000 208.800 C 55.964 208.800,56.864 208.620,57.000 208.400 C 57.136 208.180,57.766 208.000,58.400 208.000 C 59.034 208.000,59.664 207.820,59.800 207.600 C 60.734 206.089,61.927 207.233,62.607 210.291 C 62.986 211.992,63.389 213.627,63.504 213.926 C 63.673 214.368,63.157 214.423,60.756 214.217 C 59.130 214.078,50.236 213.837,40.990 213.682 L 24.180 213.400 21.548 212.103 C 19.895 211.289,18.262 210.076,17.158 208.842 C 14.626 206.012,14.400 205.699,14.400 205.040 C 14.400 204.714,14.220 204.336,14.000 204.200 C 13.499 203.890,13.472 199.032,13.967 198.095 C 14.168 197.713,14.568 196.770,14.855 196.000 C 16.699 191.051,23.277 188.022,35.200 186.631 C 38.500 186.247,51.037 186.794,53.122 187.413 M351.600 186.790 C 346.656 187.173,343.427 188.909,341.769 192.075 C 340.247 194.980,345.666 196.959,357.968 197.991 C 362.185 198.345,363.574 198.612,364.452 199.237 C 368.430 202.069,368.133 207.663,363.889 209.857 C 361.276 211.208,346.975 209.664,340.890 207.373 C 339.468 206.838,338.181 206.400,338.030 206.400 C 337.727 206.400,335.990 212.979,335.996 214.100 C 336.002 215.095,373.739 215.174,377.000 214.185 C 382.703 212.457,387.494 206.598,387.570 201.257 C 387.720 190.689,373.757 185.073,351.600 186.790 M371.600 187.996 C 375.856 189.057,376.734 189.350,379.198 190.530 C 382.094 191.918,384.808 194.389,385.693 196.444 C 387.167 199.866,387.611 202.499,386.800 203.000 C 386.580 203.136,386.400 203.702,386.400 204.258 C 386.400 207.369,380.731 212.615,376.000 213.882 C 372.734 214.758,336.290 214.589,336.556 213.700 C 336.671 213.315,337.069 211.769,337.440 210.265 C 338.110 207.550,338.838 206.678,339.707 207.547 C 339.956 207.796,340.563 208.000,341.056 208.000 C 341.549 208.000,342.064 208.180,342.200 208.400 C 342.336 208.620,342.966 208.800,343.600 208.800 C 344.234 208.800,344.864 208.980,345.000 209.200 C 345.136 209.420,346.011 209.600,346.944 209.600 C 347.877 209.600,348.811 209.766,349.020 209.969 C 349.381 210.319,350.716 210.463,358.911 211.035 C 365.117 211.469,368.560 208.495,367.851 203.316 C 367.278 199.140,364.844 197.730,357.296 197.203 C 349.343 196.647,344.027 195.459,342.170 193.821 C 341.220 192.983,344.233 189.351,346.744 188.308 C 349.420 187.196,367.481 186.970,371.600 187.996 M23.016 230.400 C 23.511 231.830,24.843 235.430,25.976 238.400 C 27.109 241.370,28.585 245.240,29.256 247.000 C 29.927 248.760,30.622 250.560,30.800 251.000 C 30.978 251.440,31.698 253.330,32.400 255.200 C 33.102 257.070,33.822 258.960,34.000 259.400 C 37.932 269.116,38.019 270.726,34.780 273.868 C 33.271 275.332,32.554 277.600,33.600 277.600 C 33.820 277.600,34.000 278.061,34.000 278.624 C 34.000 279.204,34.173 279.540,34.400 279.400 C 34.620 279.264,34.800 279.520,34.800 279.969 C 34.800 280.536,35.135 280.855,35.900 281.015 C 36.505 281.142,37.810 281.453,38.800 281.706 C 41.060 282.285,49.541 282.278,52.200 281.695 C 53.300 281.454,56.540 280.701,59.400 280.022 C 89.135 272.964,100.284 278.020,105.032 300.719 C 107.237 311.256,106.686 325.971,103.761 334.674 C 98.942 349.010,88.514 356.034,71.000 356.742 C 64.312 357.012,62.997 357.557,64.766 359.326 C 65.005 359.565,65.200 360.084,65.200 360.480 C 65.200 360.876,65.380 361.200,65.600 361.200 C 65.820 361.200,66.000 361.673,66.000 362.252 C 66.000 363.296,66.017 363.301,68.305 363.043 C 73.009 362.510,75.415 364.064,76.639 368.424 C 78.508 375.085,84.597 380.277,92.033 381.549 C 96.411 382.299,304.939 382.180,308.542 381.426 C 315.130 380.048,321.353 374.728,323.228 368.871 C 324.440 365.084,327.947 362.699,331.074 363.535 C 333.248 364.117,334.000 363.814,334.000 362.357 C 334.000 361.721,334.141 361.200,334.313 361.200 C 334.733 361.200,335.735 357.742,335.449 357.280 C 335.325 357.079,332.383 356.805,328.912 356.671 C 312.867 356.054,302.775 349.458,296.671 335.600 C 292.041 325.088,292.133 305.833,296.881 291.800 C 300.703 280.504,308.770 275.173,321.200 275.728 C 326.670 275.972,338.755 277.966,345.600 279.753 C 349.974 280.895,355.390 281.377,358.146 280.869 C 359.546 280.611,361.589 280.400,362.684 280.400 C 364.777 280.400,366.000 279.614,366.000 278.269 C 366.000 277.901,366.180 277.600,366.400 277.600 C 367.385 277.600,366.779 275.360,365.606 274.667 C 361.602 272.302,361.331 269.405,364.401 261.800 C 364.578 261.360,365.298 259.470,366.000 257.600 C 366.702 255.730,367.422 253.840,367.600 253.400 C 368.072 252.235,369.959 247.281,373.391 238.200 C 375.054 233.800,376.591 229.787,376.807 229.281 C 377.023 228.776,377.200 228.236,377.200 228.081 C 377.200 227.927,297.306 227.800,199.658 227.800 L 22.116 227.800 23.016 230.400 " stroke="none" fill="#bed6f9" fill-rule="evenodd"></path><path id="path4" d="M35.200 186.631 C 23.277 188.022,16.699 191.051,14.855 196.000 C 14.568 196.770,14.168 197.713,13.967 198.095 C 13.472 199.032,13.499 203.890,14.000 204.200 C 14.220 204.336,14.400 204.714,14.400 205.040 C 14.400 205.699,14.626 206.012,17.158 208.842 C 18.262 210.076,19.895 211.289,21.548 212.103 L 24.180 213.400 40.990 213.682 C 50.236 213.837,59.130 214.078,60.756 214.217 C 63.157 214.423,63.673 214.368,63.504 213.926 C 63.389 213.627,62.986 211.992,62.607 210.291 C 61.927 207.233,60.734 206.089,59.800 207.600 C 59.664 207.820,59.034 208.000,58.400 208.000 C 57.766 208.000,57.136 208.180,57.000 208.400 C 56.864 208.620,55.964 208.800,55.000 208.800 C 54.036 208.800,53.136 208.980,53.000 209.200 C 52.864 209.420,51.604 209.600,50.200 209.600 C 48.796 209.600,47.536 209.780,47.400 210.000 C 47.031 210.597,38.181 210.511,37.125 209.900 C 33.433 207.764,32.160 203.760,34.085 200.335 C 35.573 197.686,36.715 197.252,43.863 196.616 C 57.506 195.401,60.714 193.681,56.822 189.670 C 54.511 187.290,52.482 186.815,43.800 186.625 C 39.840 186.539,35.970 186.542,35.200 186.631 M349.800 187.565 C 345.563 188.210,340.508 192.354,342.170 193.821 C 344.027 195.459,349.343 196.647,357.296 197.203 C 364.844 197.730,367.278 199.140,367.851 203.316 C 368.560 208.495,365.117 211.469,358.911 211.035 C 350.716 210.463,349.381 210.319,349.020 209.969 C 348.811 209.766,347.877 209.600,346.944 209.600 C 346.011 209.600,345.136 209.420,345.000 209.200 C 344.864 208.980,344.234 208.800,343.600 208.800 C 342.966 208.800,342.336 208.620,342.200 208.400 C 342.064 208.180,341.549 208.000,341.056 208.000 C 340.563 208.000,339.956 207.796,339.707 207.547 C 338.838 206.678,338.110 207.550,337.440 210.265 C 337.069 211.769,336.671 213.315,336.556 213.700 C 336.290 214.589,372.734 214.758,376.000 213.882 C 380.731 212.615,386.400 207.369,386.400 204.258 C 386.400 203.702,386.580 203.136,386.800 203.000 C 387.611 202.499,387.167 199.866,385.693 196.444 C 384.808 194.389,382.094 191.918,379.198 190.530 C 376.734 189.350,375.856 189.057,371.600 187.996 C 369.457 187.462,352.659 187.129,349.800 187.565 " stroke="none" fill="#e4ecfc" fill-rule="evenodd"></path></g></svg>